<svg xmlns="http://www.w3.org/2000/svg" width="1100" height="700" viewBox="0 0 1100 700">
<rect width="100%" height="100%" fill="white"/>
<text x="550" y="28" text-anchor="middle" font-family="Arial" font-size="20" font-weight="bold">Density error trajectories relative to 6x6 PBC ED</text>
<line x1="85" y1="630.00" x2="830" y2="630.00" stroke="#ddd" stroke-width="1"/>
<text x="75" y="634.00" text-anchor="end" font-family="Arial" font-size="12">-0.173</text>
<line x1="85" y1="515.00" x2="830" y2="515.00" stroke="#ddd" stroke-width="1"/>
<text x="75" y="519.00" text-anchor="end" font-family="Arial" font-size="12">-0.135</text>
<line x1="85" y1="400.00" x2="830" y2="400.00" stroke="#ddd" stroke-width="1"/>
<text x="75" y="404.00" text-anchor="end" font-family="Arial" font-size="12">-0.0984</text>
<line x1="85" y1="285.00" x2="830" y2="285.00" stroke="#ddd" stroke-width="1"/>
<text x="75" y="289.00" text-anchor="end" font-family="Arial" font-size="12">-0.0613</text>
<line x1="85" y1="170.00" x2="830" y2="170.00" stroke="#ddd" stroke-width="1"/>
<text x="75" y="174.00" text-anchor="end" font-family="Arial" font-size="12">-0.0243</text>
<line x1="85" y1="55.00" x2="830" y2="55.00" stroke="#ddd" stroke-width="1"/>
<text x="75" y="59.00" text-anchor="end" font-family="Arial" font-size="12">0.0128</text>
<line x1="85.00" y1="55" x2="85.00" y2="630" stroke="#eee" stroke-width="1"/>
<text x="85.00" y="652" text-anchor="middle" font-family="Arial" font-size="12">0</text>
<line x1="234.00" y1="55" x2="234.00" y2="630" stroke="#eee" stroke-width="1"/>
<text x="234.00" y="652" text-anchor="middle" font-family="Arial" font-size="12">0.4</text>
<line x1="383.00" y1="55" x2="383.00" y2="630" stroke="#eee" stroke-width="1"/>
<text x="383.00" y="652" text-anchor="middle" font-family="Arial" font-size="12">0.8</text>
<line x1="532.00" y1="55" x2="532.00" y2="630" stroke="#eee" stroke-width="1"/>
<text x="532.00" y="652" text-anchor="middle" font-family="Arial" font-size="12">1.2</text>
<line x1="681.00" y1="55" x2="681.00" y2="630" stroke="#eee" stroke-width="1"/>
<text x="681.00" y="652" text-anchor="middle" font-family="Arial" font-size="12">1.6</text>
<line x1="830.00" y1="55" x2="830.00" y2="630" stroke="#eee" stroke-width="1"/>
<text x="830.00" y="652" text-anchor="middle" font-family="Arial" font-size="12">2</text>
<rect x="85" y="55" width="745" height="575" fill="none" stroke="#333" stroke-width="1.2"/>
<text x="458" y="680" text-anchor="middle" font-family="Arial" font-size="15">time</text>
<text transform="translate(22,342) rotate(-90)" text-anchor="middle" font-family="Arial" font-size="15">iPEPS exact density - ED density</text>
<polyline points="85.00,94.66 92.45,94.66 99.90,94.66 107.35,94.66 114.80,94.66 122.25,94.67 129.70,94.67 137.15,94.69 144.60,94.71 152.05,94.74 159.50,94.80 166.95,94.89 174.40,95.03 181.85,95.22 189.30,95.48 196.75,95.83 204.20,96.28 211.65,96.85 219.10,97.57 226.55,98.43 234.00,99.46 241.45,100.67 248.90,102.05 256.35,103.62 263.80,105.38 271.25,107.31 278.70,109.41 286.15,111.67 293.60,114.07 301.05,116.60 308.50,119.25 315.95,121.99 323.40,124.81 330.85,127.69 338.30,130.63 345.75,133.61 353.20,136.62 360.65,139.67 368.10,142.74 375.55,145.83 383.00,148.94 390.45,152.06 397.90,155.20 405.35,158.33 412.80,161.46 420.25,164.55 427.70,167.58 435.15,170.53 442.60,173.37 450.05,176.03 457.50,178.49 464.95,180.68 472.40,182.55 479.85,184.05 487.30,185.10 494.75,185.65 502.20,185.64 509.65,185.02 517.10,183.75 524.55,181.77 532.00,179.08 539.45,175.66 546.90,171.52 554.35,166.70 561.80,161.25 569.25,155.28 576.70,148.90 584.15,142.31 591.60,135.71 599.05,129.37 606.50,123.63 613.95,118.83 621.40,115.39 628.85,113.73 636.30,114.27 643.75,117.41 651.20,123.51 658.65,132.80 666.10,145.41 673.55,161.32 681.00,180.35 688.45,202.17 695.90,226.32 703.35,252.26 710.80,279.37 718.25,307.07 725.70,334.78 733.15,362.01 740.60,388.33 748.05,413.44 755.50,437.10 762.95,459.18 770.40,479.61 777.85,498.39 785.30,515.57 792.75,531.21 800.20,545.43 807.65,558.33 815.10,570.03 822.55,580.67 830.00,590.34" fill="none" stroke="#1f77b4" stroke-width="1.8"/>
<polyline points="85.00,94.66 92.45,94.66 99.90,94.66 107.35,94.66 114.80,94.66 122.25,94.67 129.70,94.67 137.15,94.69 144.60,94.71 152.05,94.74 159.50,94.80 166.95,94.89 174.40,95.03 181.85,95.22 189.30,95.48 196.75,95.83 204.20,96.28 211.65,96.85 219.10,97.57 226.55,98.43 234.00,99.46 241.45,100.67 248.90,102.05 256.35,103.62 263.80,105.38 271.25,107.31 278.70,109.41 286.15,111.67 293.60,114.07 301.05,116.60 308.50,119.25 315.95,121.99 323.40,124.81 330.85,127.69 338.30,130.63 345.75,133.61 353.20,136.62 360.65,139.67 368.10,142.74 375.55,145.83 383.00,148.94 390.45,152.06 397.90,155.20 405.35,158.33 412.80,161.46 420.25,164.55 427.70,167.58 435.15,170.53 442.60,173.37 450.05,176.03 457.50,178.49 464.95,180.68 472.40,182.55 479.85,184.05 487.30,185.10 494.75,185.65 502.20,185.64 509.65,185.02 517.10,183.75 524.55,181.77 532.00,179.08 539.45,175.66 546.90,171.52 554.35,166.70 561.80,161.25 569.25,155.28 576.70,148.90 584.15,142.31 591.60,135.71 599.05,129.37 606.50,123.63 613.95,118.83 621.40,115.39 628.85,113.73 636.30,114.27 643.75,117.41 651.20,123.51 658.65,132.80 666.10,145.41 673.55,161.32 681.00,180.35 688.45,202.17 695.90,226.32 703.35,252.26 710.80,279.37 718.25,307.07 725.70,334.78 733.15,362.01 740.60,388.33 748.05,413.44 755.50,437.10 762.95,459.18 770.40,479.61 777.85,498.39 785.30,515.57 792.75,531.21 800.20,545.43 807.65,558.33 815.10,570.03 822.55,580.67 830.00,590.34" fill="none" stroke="#1f77b4" stroke-width="1.8" stroke-dasharray="6,4"/>
<polyline points="85.00,94.66 92.45,94.66 99.90,94.66 107.35,94.66 114.80,94.66 122.25,94.67 129.70,94.67 137.15,94.69 144.60,94.71 152.05,94.74 159.50,94.80 166.95,94.89 174.40,95.03 181.85,95.22 189.30,95.48 196.75,95.83 204.20,96.28 211.65,96.85 219.10,97.57 226.55,98.43 234.00,99.46 241.45,100.67 248.90,102.05 256.35,103.62 263.80,105.38 271.25,107.31 278.70,109.41 286.15,111.67 293.60,114.07 301.05,116.60 308.50,119.25 315.95,121.99 323.40,124.81 330.85,127.69 338.30,130.63 345.75,133.61 353.20,136.62 360.65,139.67 368.10,142.74 375.55,145.83 383.00,148.94 390.45,152.06 397.90,155.20 405.35,158.33 412.80,161.46 420.25,164.55 427.70,167.58 435.15,170.53 442.60,173.37 450.05,176.03 457.50,178.49 464.95,180.68 472.40,182.55 479.85,184.05 487.30,185.10 494.75,185.65 502.20,185.64 509.65,185.02 517.10,183.75 524.55,181.77 532.00,179.08 539.45,175.66 546.90,171.52 554.35,166.70 561.80,161.25 569.25,155.28 576.70,148.90 584.15,142.31 591.60,135.71 599.05,129.37 606.50,123.63 613.95,118.83 621.40,115.39 628.85,113.73 636.30,114.27 643.75,117.41 651.20,123.51 658.65,132.80 666.10,145.41 673.55,161.32 681.00,180.35 688.45,202.17 695.90,226.32 703.35,252.26 710.80,279.37 718.25,307.07 725.70,334.78 733.15,362.01 740.60,388.33 748.05,413.44 755.50,437.10 762.95,459.18 770.40,479.61 777.85,498.39 785.30,515.57 792.75,531.21 800.20,545.43 807.65,558.33 815.10,570.03 822.55,580.67 830.00,590.34" fill="none" stroke="#1f77b4" stroke-width="1.8" stroke-dasharray="10,4,2,4"/>
<polyline points="85.00,94.66 92.45,94.66 99.90,94.66 107.35,94.66 114.80,94.66 122.25,94.67 129.70,94.67 137.15,94.69 144.60,94.71 152.05,94.74 159.50,94.80 166.95,94.89 174.40,95.03 181.85,95.22 189.30,95.48 196.75,95.83 204.20,96.28 211.65,96.85 219.10,97.57 226.55,98.43 234.00,99.46 241.45,100.67 248.90,102.05 256.35,103.62 263.80,105.38 271.25,107.31 278.70,109.41 286.15,111.67 293.60,114.07 301.05,116.60 308.50,119.25 315.95,121.99 323.40,124.81 330.85,127.69 338.30,130.63 345.75,133.61 353.20,136.62 360.65,139.67 368.10,142.74 375.55,145.83 383.00,148.94 390.45,152.06 397.90,155.20 405.35,158.33 412.80,161.46 420.25,164.55 427.70,167.58 435.15,170.53 442.60,173.37 450.05,176.03 457.50,178.49 464.95,180.68 472.40,182.55 479.85,184.05 487.30,185.10 494.75,185.65 502.20,185.64 509.65,185.02 517.10,183.75 524.55,181.77 532.00,179.08 539.45,175.66 546.90,171.52 554.35,166.70 561.80,161.25 569.25,155.28 576.70,148.90 584.15,142.31 591.60,135.71 599.05,129.37 606.50,123.63 613.95,118.83 621.40,115.39 628.85,113.73 636.30,114.27 643.75,117.41 651.20,123.51 658.65,132.80 666.10,145.41 673.55,161.32 681.00,180.35 688.45,202.17 695.90,226.32 703.35,252.26 710.80,279.37 718.25,307.07 725.70,334.78 733.15,362.01 740.60,388.33 748.05,413.44 755.50,437.10 762.95,459.18 770.40,479.61 777.85,498.39 785.30,515.57 792.75,531.21 800.20,545.43 807.65,558.33 815.10,570.03 822.55,580.67 830.00,590.34" fill="none" stroke="#1f77b4" stroke-width="1.8" stroke-dasharray="2,4"/>
<polyline points="85.00,94.66 92.45,94.66 99.90,94.66 107.35,94.66 114.80,94.67 122.25,94.72 129.70,94.85 137.15,95.08 144.60,95.44 152.05,95.98 159.50,96.73 166.95,97.72 174.40,98.98 181.85,100.54 189.30,102.37 196.75,104.47 204.20,106.81 211.65,109.34 219.10,112.03 226.55,114.86 234.00,117.78 241.45,120.80 248.90,123.89 256.35,127.06 263.80,130.32 271.25,133.65 278.70,137.07 286.15,140.56 293.60,144.12 301.05,147.75 308.50,151.42 315.95,155.13 323.40,158.86 330.85,162.59 338.30,166.31 345.75,170.02 353.20,173.69 360.65,177.33 368.10,180.93 375.55,184.49 383.00,188.02 390.45,191.51 397.90,194.99 405.35,198.45 412.80,201.90 420.25,205.35 427.70,208.79 435.15,212.22 442.60,215.64 450.05,219.03 457.50,222.39 464.95,225.68 472.40,228.90 479.85,232.01 487.30,235.00 494.75,237.85 502.20,240.53 509.65,243.04 517.10,245.36 524.55,247.51 532.00,249.51 539.45,251.37 546.90,253.14 554.35,254.88 561.80,256.64 569.25,258.52 576.70,260.59 584.15,262.95 591.60,265.70 599.05,268.94 606.50,272.78 613.95,277.31 621.40,282.61 628.85,288.75 636.30,295.81 643.75,303.83 651.20,312.82 658.65,322.78 666.10,333.70 673.55,345.53 681.00,358.18 688.45,371.57 695.90,385.55 703.35,400.00 710.80,414.76 718.25,429.64 725.70,444.49 733.15,459.13 740.60,473.39 748.05,487.13 755.50,500.20 762.95,512.49 770.40,523.89 777.85,534.31 785.30,543.70 792.75,552.01 800.20,559.21 807.65,565.27 815.10,570.20 822.55,574.00 830.00,576.67" fill="none" stroke="#2ca02c" stroke-width="1.8"/>
<polyline points="85.00,94.66 92.45,94.66 99.90,94.66 107.35,94.66 114.80,94.66 122.25,94.67 129.70,94.67 137.15,94.69 144.60,94.71 152.05,94.76 159.50,94.97 166.95,95.45 174.40,96.21 181.85,97.29 189.30,98.69 196.75,100.41 204.20,102.42 211.65,104.70 219.10,107.19 226.55,109.86 234.00,112.67 241.45,115.61 248.90,118.65 256.35,121.80 263.80,125.06 271.25,128.43 278.70,131.89 286.15,135.46 293.60,139.11 301.05,142.85 308.50,146.64 315.95,150.49 323.40,154.37 330.85,158.26 338.30,162.15 345.75,166.03 353.20,169.89 360.65,173.72 368.10,177.51 375.55,181.27 383.00,185.01 390.45,188.71 397.90,192.40 405.35,196.07 412.80,199.74 420.25,203.40 427.70,207.05 435.15,210.69 442.60,214.32 450.05,217.91 457.50,221.46 464.95,224.95 472.40,228.35 479.85,231.64 487.30,234.80 494.75,237.81 502.20,240.65 509.65,243.31 517.10,245.78 524.55,248.07 532.00,250.21 539.45,252.22 546.90,254.14 554.35,256.03 561.80,257.96 569.25,260.01 576.70,262.27 584.15,264.83 591.60,267.79 599.05,271.25 606.50,275.32 613.95,280.08 621.40,285.63 628.85,292.02 636.30,299.32 643.75,307.57 651.20,316.79 658.65,326.96 666.10,338.08 673.55,350.07 681.00,362.87 688.45,376.36 695.90,390.43 703.35,404.92 710.80,419.69 718.25,434.54 725.70,449.33 733.15,463.87 740.60,478.00 748.05,491.58 755.50,504.46 762.95,516.53 770.40,527.69 777.85,537.86 785.30,546.99 792.75,555.01 800.20,561.92 807.65,567.70 815.10,572.33 822.55,575.84 830.00,578.22" fill="none" stroke="#2ca02c" stroke-width="1.8" stroke-dasharray="6,4"/>
<polyline points="85.00,94.66 92.45,94.66 99.90,94.66 107.35,94.66 114.80,94.66 122.25,94.67 129.70,94.67 137.15,94.69 144.60,94.71 152.05,94.74 159.50,94.80 166.95,94.89 174.40,95.03 181.85,95.22 189.30,95.47 196.75,95.75 204.20,96.32 211.65,97.39 219.10,98.93 226.55,100.87 234.00,103.14 241.45,105.68 248.90,108.43 256.35,111.37 263.80,114.48 271.25,117.76 278.70,121.19 286.15,124.77 293.60,128.49 301.05,132.32 308.50,136.26 315.95,140.29 323.40,144.39 330.85,148.53 338.30,152.69 345.75,156.88 353.20,161.06 360.65,165.23 368.10,169.39 375.55,173.54 383.00,177.66 390.45,181.78 397.90,185.89 405.35,189.99 412.80,194.09 420.25,198.20 427.70,202.30 435.15,206.39 442.60,210.46 450.05,214.51 457.50,218.50 464.95,222.42 472.40,226.25 479.85,229.96 487.30,233.52 494.75,236.93 502.20,240.15 509.65,243.18 517.10,246.02 524.55,248.68 532.00,251.19 539.45,253.56 546.90,255.86 554.35,258.14 561.80,260.48 569.25,262.95 576.70,265.65 584.15,268.68 591.60,272.13 599.05,276.11 606.50,280.71 613.95,286.02 621.40,292.12 628.85,299.07 636.30,306.93 643.75,315.72 651.20,325.46 658.65,336.12 666.10,347.68 673.55,360.07 681.00,373.19 688.45,386.95 695.90,401.19 703.35,415.78 710.80,430.55 718.25,445.33 725.70,459.95 733.15,474.23 740.60,488.03 748.05,501.20 755.50,513.61 762.95,525.15 770.40,535.74 777.85,545.30 785.30,553.78 792.75,561.16 800.20,567.40 807.65,572.51 815.10,576.48 822.55,579.32 830.00,581.05" fill="none" stroke="#2ca02c" stroke-width="1.8" stroke-dasharray="10,4,2,4"/>
<polyline points="85.00,94.66 92.45,94.66 99.90,94.66 107.35,94.66 114.80,94.66 122.25,94.67 129.70,94.67 137.15,94.69 144.60,94.71 152.05,94.74 159.50,94.80 166.95,94.89 174.40,95.03 181.85,95.22 189.30,95.48 196.75,95.83 204.20,96.28 211.65,96.85 219.10,97.57 226.55,98.43 234.00,99.46 241.45,100.67 248.90,102.02 256.35,103.28 263.80,105.03 271.25,107.39 278.70,110.19 286.15,113.30 293.60,116.66 301.05,120.22 308.50,123.96 315.95,127.86 323.40,131.89 330.85,136.03 338.30,140.25 345.75,144.55 353.20,148.89 360.65,153.27 368.10,157.68 375.55,162.10 383.00,166.55 390.45,171.01 397.90,175.48 405.35,179.98 412.80,184.49 420.25,189.03 427.70,193.57 435.15,198.12 442.60,202.66 450.05,207.18 457.50,211.65 464.95,216.06 472.40,220.38 479.85,224.57 487.30,228.63 494.75,232.52 502.20,236.22 509.65,239.74 517.10,243.06 524.55,246.20 532.00,249.20 539.45,252.07 546.90,254.88 554.35,257.68 561.80,260.56 569.25,263.61 576.70,266.91 584.15,270.56 591.60,274.67 599.05,279.33 606.50,284.64 613.95,290.69 621.40,297.54 628.85,305.25 636.30,313.87 643.75,323.42 651.20,333.89 658.65,345.25 666.10,357.45 673.55,370.41 681.00,384.04 688.45,398.20 695.90,412.74 703.35,427.52 710.80,442.35 718.25,457.07 725.70,471.52 733.15,485.52 740.60,498.92 748.05,511.61 755.50,523.46 762.95,534.38 770.40,544.29 777.85,553.14 785.30,560.89 792.75,567.51 800.20,573.00 807.65,577.35 815.10,580.58 822.55,582.69 830.00,583.69" fill="none" stroke="#2ca02c" stroke-width="1.8" stroke-dasharray="2,4"/>
<polyline points="85.00,94.66 92.45,94.66 99.90,94.66 107.35,94.66 114.80,94.66 122.25,96.46 129.70,100.49 137.15,105.40 144.60,111.17 152.05,117.83 159.50,124.83 166.95,132.46 174.40,140.49 181.85,148.95 189.30,157.74 196.75,166.97 204.20,174.33 211.65,180.42 219.10,184.14 226.55,187.46 234.00,190.45 241.45,193.06 248.90,195.19 256.35,196.81 263.80,198.02 271.25,198.88 278.70,199.44 286.15,199.74 293.60,199.82 301.05,199.69 308.50,199.39 315.95,198.96 323.40,198.42 330.85,197.80 338.30,197.13 345.75,196.42 353.20,195.70 360.65,194.99 368.10,194.29 375.55,193.62 383.00,192.97 390.45,192.35 397.90,191.76 405.35,191.20 412.80,190.64 420.25,190.09 427.70,189.53 435.15,188.94 442.60,188.31 450.05,187.61 457.50,186.83 464.95,185.95 472.40,184.95 479.85,183.81 487.30,182.53 494.75,181.10 502.20,179.52 509.65,177.81 517.10,175.98 524.55,174.05 532.00,172.07 539.45,170.08 546.90,168.12 554.35,166.27 561.80,164.59 569.25,163.14 576.70,162.00 584.15,161.24 591.60,160.93 599.05,161.14 606.50,161.94 613.95,163.37 621.40,165.48 628.85,168.30 636.30,171.87 643.75,176.20 651.20,181.28 658.65,187.11 666.10,193.67 673.55,200.93 681.00,208.87 688.45,217.42 695.90,226.56 703.35,236.22 710.80,246.35 718.25,256.90 725.70,267.81 733.15,279.02 740.60,290.49 748.05,302.15 755.50,313.96 762.95,325.87 770.40,337.83 777.85,349.80 785.30,361.73 792.75,373.58 800.20,385.31 807.65,396.86 815.10,408.20 822.55,419.26 830.00,430.00" fill="none" stroke="#d62728" stroke-width="1.8"/>
<polyline points="85.00,94.66 92.45,94.66 99.90,94.66 107.35,94.66 114.80,94.66 122.25,94.67 129.70,94.67 137.15,94.69 144.60,94.71 152.05,94.73 159.50,94.88 166.95,95.08 174.40,95.24 181.85,95.44 189.30,95.69 196.75,96.00 204.20,96.39 211.65,96.85 219.10,97.41 226.55,98.06 234.00,98.81 241.45,99.66 248.90,100.63 256.35,101.70 263.80,102.88 271.25,104.18 278.70,105.58 286.15,107.10 293.60,108.72 301.05,110.44 308.50,112.27 315.95,114.20 323.40,116.22 330.85,118.33 338.30,120.52 345.75,122.79 353.20,125.13 360.65,127.53 368.10,129.99 375.55,132.48 383.00,135.00 390.45,137.54 397.90,140.07 405.35,142.57 412.80,145.03 420.25,147.43 427.70,149.73 435.15,151.93 442.60,153.99 450.05,155.91 457.50,157.66 464.95,159.23 472.40,160.62 479.85,161.83 487.30,162.86 494.75,163.74 502.20,164.49 509.65,165.15 517.10,165.74 524.55,166.34 532.00,166.99 539.45,167.76 546.90,168.71 554.35,169.92 561.80,171.45 569.25,173.37 576.70,175.75 584.15,178.64 591.60,182.09 599.05,186.14 606.50,190.82 613.95,196.14 621.40,202.13 628.85,208.76 636.30,216.02 643.75,223.90 651.20,232.35 658.65,241.34 666.10,250.82 673.55,260.74 681.00,271.04 688.45,281.67 695.90,292.57 703.35,303.69 710.80,314.97 718.25,326.36 725.70,337.82 733.15,349.30 740.60,360.75 748.05,372.14 755.50,383.42 762.95,394.56 770.40,405.53 777.85,416.27 785.30,426.76 792.75,436.95 800.20,446.80 807.65,456.24 815.10,465.23 822.55,473.68 830.00,481.52" fill="none" stroke="#d62728" stroke-width="1.8" stroke-dasharray="6,4"/>
<polyline points="85.00,94.66 92.45,94.66 99.90,94.66 107.35,94.66 114.80,94.66 122.25,94.67 129.70,94.67 137.15,94.69 144.60,94.71 152.05,94.74 159.50,94.80 166.95,94.89 174.40,95.03 181.85,95.22 189.30,95.47 196.75,95.72 204.20,96.02 211.65,96.42 219.10,96.93 226.55,97.55 234.00,98.29 241.45,99.16 248.90,100.16 256.35,101.30 263.80,102.57 271.25,103.97 278.70,105.50 286.15,107.17 293.60,108.95 301.05,110.86 308.50,112.87 315.95,115.00 323.40,117.22 330.85,119.53 338.30,121.93 345.75,124.40 353.20,126.94 360.65,129.54 368.10,132.19 375.55,134.86 383.00,137.56 390.45,140.27 397.90,142.96 405.35,145.61 412.80,148.22 420.25,150.75 427.70,153.18 435.15,155.49 442.60,157.65 450.05,159.65 457.50,161.48 464.95,163.11 472.40,164.54 479.85,165.76 487.30,166.80 494.75,167.65 502.20,168.35 509.65,168.93 517.10,169.43 524.55,169.90 532.00,170.41 539.45,171.02 546.90,171.79 554.35,172.81 561.80,174.14 569.25,175.86 576.70,178.04 584.15,180.72 591.60,183.98 599.05,187.84 606.50,192.35 613.95,197.52 621.40,203.36 628.85,209.87 636.30,217.03 643.75,224.81 651.20,233.19 658.65,242.11 666.10,251.53 673.55,261.40 681.00,271.66 688.45,282.25 695.90,293.12 703.35,304.20 710.80,315.44 718.25,326.80 725.70,338.21 733.15,349.63 740.60,361.02 748.05,372.34 755.50,383.54 762.95,394.60 770.40,405.47 777.85,416.11 785.30,426.49 792.75,436.57 800.20,446.29 807.65,455.62 815.10,464.48 822.55,472.81 830.00,480.53" fill="none" stroke="#d62728" stroke-width="1.8" stroke-dasharray="10,4,2,4"/>
<polyline points="85.00,94.66 92.45,94.66 99.90,94.66 107.35,94.66 114.80,94.66 122.25,94.67 129.70,94.67 137.15,94.69 144.60,94.71 152.05,94.74 159.50,94.80 166.95,94.89 174.40,95.03 181.85,95.22 189.30,95.48 196.75,95.83 204.20,96.28 211.65,96.85 219.10,97.57 226.55,98.43 234.00,99.46 241.45,100.67 248.90,102.02 256.35,103.17 263.80,104.42 271.25,105.83 278.70,107.40 286.15,109.14 293.60,111.02 301.05,113.06 308.50,115.24 315.95,117.54 323.40,119.97 330.85,122.51 338.30,125.14 345.75,127.86 353.20,130.65 360.65,133.50 368.10,136.39 375.55,139.31 383.00,142.24 390.45,145.18 397.90,148.09 405.35,150.96 412.80,153.76 420.25,156.48 427.70,159.10 435.15,161.58 442.60,163.91 450.05,166.06 457.50,168.02 464.95,169.76 472.40,171.28 479.85,172.57 487.30,173.63 494.75,174.47 502.20,175.11 509.65,175.58 517.10,175.91 524.55,176.14 532.00,176.35 539.45,176.58 546.90,176.92 554.35,177.43 561.80,178.20 569.25,179.30 576.70,180.81 584.15,182.80 591.60,185.33 599.05,188.45 606.50,192.22 613.95,196.66 621.40,201.79 628.85,207.61 636.30,214.12 643.75,221.28 651.20,229.08 658.65,237.46 666.10,246.39 673.55,255.79 681.00,265.62 688.45,275.81 695.90,286.30 703.35,297.02 710.80,307.92 718.25,318.94 725.70,330.03 733.15,341.12 740.60,352.19 748.05,363.18 755.50,374.05 762.95,384.77 770.40,395.29 777.85,405.60 785.30,415.64 792.75,425.38 800.20,434.78 807.65,443.80 815.10,452.38 822.55,460.45 830.00,467.96" fill="none" stroke="#d62728" stroke-width="1.8" stroke-dasharray="2,4"/>
<line x1="855" y1="65" x2="889" y2="65" stroke="#1f77b4" stroke-width="1.8"/>
<text x="897" y="69" font-family="Arial" font-size="12">D=2, c=1e-12</text>
<line x1="855" y1="87" x2="889" y2="87" stroke="#1f77b4" stroke-width="1.8" stroke-dasharray="6,4"/>
<text x="897" y="91" font-family="Arial" font-size="12">D=2, c=1e-10</text>
<line x1="855" y1="109" x2="889" y2="109" stroke="#1f77b4" stroke-width="1.8" stroke-dasharray="10,4,2,4"/>
<text x="897" y="113" font-family="Arial" font-size="12">D=2, c=1e-9</text>
<line x1="855" y1="131" x2="889" y2="131" stroke="#1f77b4" stroke-width="1.8" stroke-dasharray="2,4"/>
<text x="897" y="135" font-family="Arial" font-size="12">D=2, c=1e-8</text>
<line x1="855" y1="153" x2="889" y2="153" stroke="#2ca02c" stroke-width="1.8"/>
<text x="897" y="157" font-family="Arial" font-size="12">D=3, c=1e-12</text>
<line x1="855" y1="175" x2="889" y2="175" stroke="#2ca02c" stroke-width="1.8" stroke-dasharray="6,4"/>
<text x="897" y="179" font-family="Arial" font-size="12">D=3, c=1e-10</text>
<line x1="855" y1="197" x2="889" y2="197" stroke="#2ca02c" stroke-width="1.8" stroke-dasharray="10,4,2,4"/>
<text x="897" y="201" font-family="Arial" font-size="12">D=3, c=1e-9</text>
<line x1="855" y1="219" x2="889" y2="219" stroke="#2ca02c" stroke-width="1.8" stroke-dasharray="2,4"/>
<text x="897" y="223" font-family="Arial" font-size="12">D=3, c=1e-8</text>
<line x1="855" y1="241" x2="889" y2="241" stroke="#d62728" stroke-width="1.8"/>
<text x="897" y="245" font-family="Arial" font-size="12">D=4, c=1e-12</text>
<line x1="855" y1="263" x2="889" y2="263" stroke="#d62728" stroke-width="1.8" stroke-dasharray="6,4"/>
<text x="897" y="267" font-family="Arial" font-size="12">D=4, c=1e-10</text>
<line x1="855" y1="285" x2="889" y2="285" stroke="#d62728" stroke-width="1.8" stroke-dasharray="10,4,2,4"/>
<text x="897" y="289" font-family="Arial" font-size="12">D=4, c=1e-9</text>
<line x1="855" y1="307" x2="889" y2="307" stroke="#d62728" stroke-width="1.8" stroke-dasharray="2,4"/>
<text x="897" y="311" font-family="Arial" font-size="12">D=4, c=1e-8</text>
</svg>